<?xml version="1.0" standalone="no"?><!DOCTYPE svg PUBLIC "-//W3C//DTD SVG 1.1//EN" "http://www.w3.org/Graphics/SVG/1.1/DTD/svg11.dtd"><svg t="1602823601986" class="icon" viewBox="0 0 1024 1024" version="1.1" xmlns="http://www.w3.org/2000/svg" p-id="6564" xmlns:xlink="http://www.w3.org/1999/xlink" width="200" height="200"><defs><style type="text/css"></style></defs><path d="M330.666667 768a53.333333 53.333333 0 1 1 0 106.666667 53.333333 53.333333 0 0 1 0-106.666667z m384 0a53.333333 53.333333 0 1 1 0 106.666667 53.333333 53.333333 0 0 1 0-106.666667zM94.762667 160h54.741333a96 96 0 0 1 92.906667 71.786667l1.024 4.394666L256.64 298.666667h0.213333l42.88 205.333333L332.224 661.333333h402.218667l61.653333-298.666666H313.813333l-13.376-64h495.68a64 64 0 0 1 62.677334 76.949333l-61.653334 298.666667A64 64 0 0 1 734.442667 725.333333H332.224a64 64 0 0 1-62.677333-51.050666l-60.586667-293.418667-0.405333 0.085333-27.733334-131.562666a32 32 0 0 0-28.309333-25.237334l-2.986667-0.149333H94.741333v-64h54.741334zM682.666667 469.333333v64H384v-64h298.666667z" p-id="6565"></path></svg>