<?xml version="1.0" standalone="no"?><!DOCTYPE svg PUBLIC "-//W3C//DTD SVG 1.1//EN" "http://www.w3.org/Graphics/SVG/1.1/DTD/svg11.dtd"><svg t="1606984666661" class="icon" viewBox="0 0 1024 1024" version="1.1" xmlns="http://www.w3.org/2000/svg" p-id="5700" xmlns:xlink="http://www.w3.org/1999/xlink" width="128" height="128"><defs><style type="text/css"></style></defs><path d="M243.095 663.243c12.585 22.625 39.816 32.322 75.41 32.322 27.448 0 59.984-6.012 94.5-16.07 18.017 84.213 51.313 147.821 98.52 147.821 47.957 0 81.529-65.686 99.333-151.891 31.597 7.873 61.404 12.424 87.142 12.424 39.796 0 69.997-10.626 82.562-35.554 15.413-30.544-0.889-71.552-47.129-118.58-7.333-7.469-16.009-14.931-24.534-22.388 55.404-52.389 86.938-106.048 65.886-143.907-22.198-39.857-89.819-39.551-168.497-16.83-18.704-76.039-50.631-131.728-94.763-131.728-45.437 0-77.981 58.954-96.427 138.46-83.913-22.224-156.404-21.375-177.782 21.047-15.413 30.544 0.889 71.552 47.129 118.58 7.333 7.469 16.009 14.931 24.534 22.388-55.402 52.388-86.936 106.047-65.884 143.906z m466.744-106.338c33.332 33.938 49.109 64.764 41.19 80.481-9.787 19.446-60.181 24.33-134.365 5.629 3.209-20.906 5.671-42.513 7.151-64.482 21.398-14.408 41.695-29.569 60.237-45.114 9.109 7.825 18.103 15.666 25.787 23.486z m-84.932-67.651c11.525 7.611 22.309 15.305 32.695 23.135-9.906 8.126-20.633 16.274-32.155 24.562 0.078-4.624 0.235-9.252 0.235-13.863 0-11.252-0.313-22.547-0.775-33.834z m74.367-121.229c24.766 0 41.089 5.576 46.584 15.474 10.032 18.022-11.414 59.116-62.585 106.863-18.676-14.426-39.021-28.539-61.095-42.112-2.06-22.466-5.015-44.447-8.904-65.411 34.278-9.991 63.703-14.814 86-14.814zM434.515 604.678c7.704 4.184 15.07 8.58 23.014 12.588 4.379 2.207 8.881 4.23 13.312 6.366-11.07 4.674-22.024 9.267-32.418 13.032-1.522-10.192-2.79-20.941-3.908-31.986z m77.011 189.508c-22.421 0-50.624-45.442-67.168-124.779 22.16-7.795 44.69-17.057 67.11-27.496 22.693 9.464 45.49 17.827 67.822 24.696-16.456 81.096-45.076 127.579-67.764 127.579z m73.469-160.262c-10.775-3.399-22.13-7.601-33.65-11.926 4.353-2.323 8.79-4.52 13.088-6.914a827.255 827.255 0 0 0 24.443-14.168c-1.099 11.408-2.356 22.496-3.881 33.008z m2.025-205.94c-8.881-4.879-17.464-9.944-26.668-14.588-4.505-2.273-9.103-4.411-13.664-6.606a658.933 658.933 0 0 1 35.157-13.724c1.968 11.071 3.698 22.712 5.175 34.918z m-75.494-175.993c20.855 0 46.74 39.233 63.573 108.535-22.65 7.911-45.801 17.408-68.744 28.1a758.396 758.396 0 0 0-59.828-22.049c16.767-73.076 43.546-114.586 64.999-114.586z m-71.317 146.965c8.618 2.838 17.524 6.058 26.6 9.474-4.459 2.379-8.959 4.697-13.36 7.149-5.737 3.192-11.414 6.553-17.093 9.893a639.13 639.13 0 0 1 3.853-26.516z m-7.853 67.966c11.984-7.502 23.878-15.019 37.172-22.416a852.382 852.382 0 0 1 37.541-19.653c12.509 5.55 25.264 11.502 38.374 18.118 15.656 7.888 30.718 16.204 45.293 24.729 1.164 17.595 1.856 36.008 1.856 55.389 0 12.727-0.354 24.948-0.869 36.912-13.729 8.762-27.86 17.527-43.372 26.155-12.934 7.194-25.231 13.138-37.597 19.226-12.595-5.583-25.115-11.027-38.319-17.691-14.11-7.111-27.579-14.658-40.821-22.292-0.679-13.656-1.156-27.64-1.156-42.311 0.001-19.66 0.701-38.344 1.898-56.166z m-124.315 6.835c-33.332-33.938-49.109-64.764-41.19-80.481 5.596-11.111 24.342-17.534 53.23-17.534 23.337 0 53.497 4.414 88.463 13.767-3.265 18.701-5.77 38.175-7.608 58-23.923 15.754-46.579 32.526-67.105 49.732-9.109-7.825-18.106-15.663-25.79-23.484z m89.69 70.691c-13.234-8.59-25.665-17.29-37.45-26.175 11.512-9.444 24.148-18.949 37.844-28.592-0.452 11.146-0.755 22.297-0.755 33.407 0 7.104 0.177 14.232 0.361 21.36z m-63.123-4.148a701.52 701.52 0 0 0 65.176 44.73c1.596 21.161 4.035 41.952 7.242 62.037-73.671 21.875-124.438 19.125-135.003 0.096-10.033-18.022 11.413-59.116 62.585-106.863z m176.009 0.646c13.676 0 24.807-11.151 24.807-24.807 0-13.696-11.131-24.847-24.807-24.847-13.696 0-24.827 11.151-24.827 24.847 0 13.656 11.131 24.807 24.827 24.807z m0-33.13c4.565 0 8.262 3.757 8.262 8.323 0 9.131-16.545 9.131-16.545 0 0.001-4.565 3.718-8.323 8.283-8.323z m-347.336-19.918c0-19.216-11.31-35.47-27.34-43.72 34.241-179.761 190.756-309.677 374.676-309.677 147.427 0 283.137 86.258 345.74 219.827 3.899 8.242 13.676 11.838 22.019 7.959 8.262-3.879 11.838-13.737 7.959-22.019-68.037-145.124-215.525-238.897-375.719-238.897-200.715 0-371.424 142.374-407.697 339.046-22.062 5.05-38.907 23.928-38.907 47.48 0 27.352 22.262 49.654 49.634 49.654s49.635-22.301 49.635-49.653z m-49.634 16.525c-9.111 0-16.545-7.394-16.545-16.524s7.434-16.524 16.545-16.524 16.545 7.394 16.545 16.524-7.435 16.524-16.545 16.524z m797.294-14.303c-27.372 0-49.634 22.302-49.634 49.694 0 18.206 10.338 33.501 25.006 42.144-31.506 180.592-191.402 315.818-375.696 315.818-146.013 0-281.178-85.087-344.347-216.838l-2.687-5.737c-3.757-8.363-13.514-11.999-21.898-8.282-8.323 3.757-12.04 13.535-8.282 21.858l3.01 6.464c68.663 143.144 215.545 235.665 374.204 235.665 200.207 0 373.926-146.904 408.242-343.041 23.469-3.944 41.735-23.504 41.735-48.051 0.001-27.392-22.281-49.694-49.653-49.694z m0 66.219c-9.111 0-16.545-7.394-16.545-16.524s7.434-16.565 16.545-16.565c9.131 0 16.565 7.434 16.565 16.565s-7.435 16.524-16.565 16.524z" fill="#bfbfbf" p-id="5701"></path></svg>
