<?xml version="1.0" standalone="no"?><!DOCTYPE svg PUBLIC "-//W3C//DTD SVG 1.1//EN" "http://www.w3.org/Graphics/SVG/1.1/DTD/svg11.dtd"><svg t="1607066625951" class="icon" viewBox="0 0 1024 1024" version="1.1" xmlns="http://www.w3.org/2000/svg" p-id="1533" xmlns:xlink="http://www.w3.org/1999/xlink" width="400" height="400"><defs><style type="text/css"></style></defs><path d="M968.192 942.08H55.808c-16.896 0-30.72 13.824-30.72 30.72s13.824 30.72 30.72 30.72h912.384c16.896 0 30.72-13.824 30.72-30.72s-13.824-30.72-30.72-30.72zM254.464 705.024c25.6 0 51.2-4.096 77.312-12.288 16.384-5.12 25.6-22.016 20.48-38.4s-22.016-25.6-38.4-20.48c-20.48 6.144-39.424 9.216-58.88 9.216-103.936 0-188.928-84.992-188.928-188.928 0-50.688 19.968-97.792 55.808-133.632 35.84-35.328 82.432-54.784 132.608-54.784h4.096c2.56 0.512 5.12 0.512 7.68 0.512 13.824 0 26.112-8.704 29.696-22.016 27.648-95.232 116.736-161.792 216.064-161.792 111.616 0 207.872 83.456 223.232 194.048 2.048 16.384 16.384 27.648 32.768 26.624 6.144-0.512 12.288-1.024 18.432-1.024 94.208 0 170.496 76.288 170.496 170.496s-76.288 170.496-170.496 170.496c-18.944 0-37.888-3.072-54.784-9.216-15.872-5.632-33.28 3.072-38.912 18.944-5.632 15.872 3.072 33.28 18.944 38.912 23.552 8.192 49.152 12.288 75.264 12.288 128 0 231.936-103.936 231.936-231.936 0-126.464-101.888-229.888-227.84-231.936C760.32 113.152 645.12 20.48 512.512 20.48c-118.784 0-225.28 74.24-269.312 184.32-62.464 2.56-120.832 28.16-165.376 72.704C30.208 324.608 4.096 387.584 4.096 454.656c0 138.24 112.128 250.368 250.368 250.368z" fill="#e6e6e6" p-id="1534"></path><path d="M512.512 506.368c-16.896 0-30.72 13.824-30.72 30.72v254.976l-57.344-57.344c-12.288-11.776-31.744-11.776-43.52 0-11.776 12.288-11.776 31.744 0 43.52l110.08 110.08c5.632 6.144 13.312 9.216 21.504 9.216s15.872-3.072 22.016-9.216l109.568-110.08c12.288-12.288 12.288-31.232 0-43.52-12.288-12.288-31.744-11.776-43.52 0l-57.344 57.344v-254.976c0-16.896-13.824-30.72-30.72-30.72z" fill="#e6e6e6" p-id="1535"></path></svg>
