<?xml version="1.0" standalone="no"?><!DOCTYPE svg PUBLIC "-//W3C//DTD SVG 1.1//EN" "http://www.w3.org/Graphics/SVG/1.1/DTD/svg11.dtd"><svg t="1606984785444" class="icon" viewBox="0 0 1024 1024" version="1.1" xmlns="http://www.w3.org/2000/svg" p-id="6838" xmlns:xlink="http://www.w3.org/1999/xlink" width="200" height="200"><defs><style type="text/css"></style></defs><path d="M421.4 960S34.1 872.6 207.2 438.8c0 0 39.3 48.2 33.9 71.4 0 0 30.8-109.5 97.3-174.9C395.5 279.1 453.5 121.1 400 64c0 0 265 57.1 294.5 342.7 0 0 33.9-91 103.5-100 0 0-21.4 50 0 125 0 0 219.5 385.5-158.8 515.8 0 0 113.4-132.1-127.1-358.8 0 0-56.7 121.4-90.6 164.2-0.1 0.1-94.7 108.9-0.1 207.1z" fill="#cdcdcd" p-id="6839"></path></svg>