<?xml version="1.0" standalone="no"?><!DOCTYPE svg PUBLIC "-//W3C//DTD SVG 1.1//EN" "http://www.w3.org/Graphics/SVG/1.1/DTD/svg11.dtd"><svg t="1602823799720" class="icon" viewBox="0 0 1024 1024" version="1.1" xmlns="http://www.w3.org/2000/svg" p-id="2217" xmlns:xlink="http://www.w3.org/1999/xlink" width="200" height="200"><defs><style type="text/css"></style></defs><path d="M682.388 173.223c-33.057-53.617-92.142-89.55-159.615-89.55-64.94 0-122.264 33.22-155.928 83.534C194.872 198.584 63.999 349.146 63.999 530.05v40.916c0 203.612 165.652 369.246 369.243 369.246H589.86c203.613 0 369.262-165.634 369.262-369.246V530.05c-0.001-171.587-117.848-315.647-276.735-356.827zM522.772 135.77c74.704 0 135.472 60.768 135.472 135.472 0 13.794-2.148 27.061-6.035 39.58H393.338c-3.848-12.519-6.036-25.786-6.036-39.58 0-74.704 60.767-135.472 135.47-135.472z m384.253 435.196c0 174.888-142.277 317.185-317.164 317.185H433.24c-174.887 0-317.165-142.297-317.165-317.185V530.05c0-142.722 94.797-263.61 224.718-303.29-3.504 14.3-5.57 29.128-5.57 44.482 0 13.59 1.56 26.798 4.315 39.58h-26.333c-13.692 0-24.794 11.1-24.794 24.793s11.101 24.813 24.794 24.813h413.239c13.712 0 24.793-11.12 24.793-24.813 0-13.692-11.081-24.794-24.793-24.794h-20.398c2.756-12.781 4.296-25.989 4.296-39.58 0-12.153-1.257-24.023-3.486-35.549 117.079 46.67 200.168 160.831 200.168 294.358v40.916z m-296.302 20.885c13.714 0 24.794-11.12 24.794-24.813 0-13.694-11.079-24.794-24.794-24.794h-52.341l49.707-49.708c9.684-9.683 9.684-25.381 0-35.063-9.682-9.703-25.4-9.703-35.063 0L511.55 518.95l-61.454-61.476c-9.683-9.703-25.381-9.703-35.064 0-9.682 9.682-9.682 25.38 0 35.063l49.71 49.708h-52.362c-13.693 0-24.794 11.1-24.794 24.794 0 13.692 11.1 24.813 24.794 24.813h74.379v49.566h-74.38c-13.692 0-24.793 11.1-24.793 24.793 0 13.713 11.1 24.813 24.794 24.813h74.379v66.114c0 13.695 11.1 24.794 24.792 24.794 13.695 0 24.794-11.099 24.794-24.794v-66.114h74.38c13.714 0 24.794-11.1 24.794-24.813 0-13.694-11.079-24.793-24.794-24.793h-74.38V591.85h74.379z" p-id="2218"></path></svg>