<?xml version="1.0" standalone="no"?><!DOCTYPE svg PUBLIC "-//W3C//DTD SVG 1.1//EN" "http://www.w3.org/Graphics/SVG/1.1/DTD/svg11.dtd"><svg t="1602823790891" class="icon" viewBox="0 0 1024 1024" version="1.1" xmlns="http://www.w3.org/2000/svg" p-id="2085" xmlns:xlink="http://www.w3.org/1999/xlink" width="200" height="200"><defs><style type="text/css"></style></defs><path d="M444.416 648.192v-17.408c0-4.096-3.072-8.192-7.168-9.216-22.528-4.096-40.96-12.288-56.32-26.624-10.24-10.24-17.408-23.552-21.504-38.912-4.096-16.384 8.192-31.744 24.576-31.744h1.024c12.288 0 22.528 8.192 24.576 19.456 2.048 10.24 6.144 17.408 13.312 23.552 10.24 9.216 22.528 13.312 37.888 13.312 16.384 0 28.672-4.096 36.864-11.264 8.192-7.168 13.312-17.408 13.312-30.72 0-12.288-4.096-22.528-12.288-30.72s-21.504-15.36-39.936-21.504c-30.72-10.24-53.248-22.528-68.608-36.864s-22.528-34.816-22.528-59.392c0-23.552 7.168-43.008 21.504-58.368 13.312-13.312 30.72-22.528 52.224-26.624 4.096-1.024 7.168-4.096 7.168-9.216v-22.528c0-9.216 7.168-17.408 17.408-17.408h1.024c9.216 0 17.408 7.168 17.408 17.408V296.96c0 4.096 3.072 8.192 7.168 8.192 21.504 4.096 37.888 14.336 51.2 29.696 8.192 10.24 14.336 23.552 17.408 37.888 3.072 15.36-9.216 30.72-25.6 30.72H532.48c-12.288 0-22.528-8.192-25.6-20.48-2.048-9.216-5.12-16.384-10.24-22.528-8.192-10.24-19.456-16.384-32.768-16.384-14.336 0-25.6 4.096-32.768 11.264-7.168 8.192-11.264 18.432-11.264 31.744 0 12.288 4.096 22.528 11.264 29.696 8.192 8.192 21.504 15.36 41.984 22.528 30.72 11.264 53.248 23.552 67.584 37.888 15.36 14.336 22.528 33.792 22.528 59.392s-7.168 45.056-22.528 59.392c-13.312 13.312-31.744 21.504-54.272 25.6-4.096 1.024-7.168 4.096-7.168 9.216v17.408c0 9.216-7.168 17.408-17.408 17.408-9.216 0-17.408-7.168-17.408-17.408z m523.264 148.48c-9.216-6.144-22.528-3.072-27.648 7.168-13.312 21.504-66.56 82.944-100.352 112.64v-471.04c0-51.2-10.24-104.448-29.696-150.528-18.432-46.08-48.128-90.112-84.992-128C649.216 92.16 550.912 51.2 445.44 51.2 228.352 51.2 51.2 228.352 51.2 445.44S228.352 839.68 445.44 839.68H542.72c11.264 0 20.48-9.216 20.48-20.48s-9.216-20.48-20.48-20.48h-97.28C250.88 798.72 92.16 640 92.16 445.44S250.88 92.16 445.44 92.16c94.208 0 183.296 36.864 249.856 103.424 33.792 33.792 60.416 72.704 76.8 114.688C789.504 352.256 798.72 399.36 798.72 445.44v470.016c-32.768-29.696-87.04-90.112-100.352-112.64-6.144-9.216-18.432-13.312-27.648-7.168-9.216 6.144-13.312 18.432-7.168 27.648 9.216 15.36 38.912 51.2 67.584 81.92 61.44 65.536 79.872 65.536 88.064 65.536s25.6 0 88.064-65.536c28.672-30.72 58.368-66.56 67.584-81.92 6.144-8.192 3.072-20.48-7.168-26.624z" p-id="2086"></path></svg>