<?xml version="1.0" standalone="no"?><!DOCTYPE svg PUBLIC "-//W3C//DTD SVG 1.1//EN" "http://www.w3.org/Graphics/SVG/1.1/DTD/svg11.dtd"><svg t="1612269485973" class="icon" viewBox="0 0 1024 1024" version="1.1" xmlns="http://www.w3.org/2000/svg" p-id="811" xmlns:xlink="http://www.w3.org/1999/xlink" width="200" height="200"><defs><style type="text/css"></style></defs><path d="M697.856 322.56A185.856 185.856 0 1 0 386.048 460.8a279.552 279.552 0 0 0-191.488 256 35.328 35.328 0 1 0 71.168 0c0-110.592 102.4-200.192 235.52-204.8h25.6a229.888 229.888 0 0 1 124.416 34.816l8.192 5.632a198.656 198.656 0 0 1 99.328 165.376 35.328 35.328 0 0 0 71.168 0 269.312 269.312 0 0 0-134.144-231.424h-2.56a227.328 227.328 0 0 0-51.2-27.648 184.832 184.832 0 0 0 55.808-136.192zM512 226.304A96.256 96.256 0 1 1 415.744 322.56 96.256 96.256 0 0 1 512 226.304z" fill="#2c2c2c" p-id="812"></path><path d="M884.224 16.384H824.32a38.4 38.4 0 0 0 0 76.8h59.904a64 64 0 0 1 64 63.488v581.12a64 64 0 0 1-64 63.488H139.776a64 64 0 0 1-64-63.488V156.672a64 64 0 0 1 64-63.488h488.448a38.4 38.4 0 0 0 0-76.8H139.776A140.8 140.8 0 0 0 0 156.672v581.12a140.8 140.8 0 0 0 140.8 140.288h332.8v51.2H303.616a38.4 38.4 0 0 0 0 76.8h417.792a38.4 38.4 0 1 0 0-76.8h-171.008v-51.2h333.824A140.8 140.8 0 0 0 1024 737.792V156.672A140.8 140.8 0 0 0 884.224 16.384z" fill="#2c2c2c" p-id="813"></path></svg>