<?xml version="1.0" standalone="no"?><!DOCTYPE svg PUBLIC "-//W3C//DTD SVG 1.1//EN" "http://www.w3.org/Graphics/SVG/1.1/DTD/svg11.dtd"><svg t="1607068792183" class="icon" viewBox="0 0 1024 1024" version="1.1" xmlns="http://www.w3.org/2000/svg" p-id="4814" xmlns:xlink="http://www.w3.org/1999/xlink" width="200" height="200"><defs><style type="text/css"></style></defs><path d="M512 0a512 512 0 1 0 0 1024A512 512 0 0 0 512 0z m0 960C264.96 960 64 759.04 64 512S264.96 64 512 64s448 200.96 448 448-200.96 448-448 448z" fill="#D73B1D" p-id="4815"></path><path d="M512 248a48.128 48.128 0 0 0-48 48v288c0 26.368 21.632 48 48 48s48-21.632 48-48V296a48.128 48.128 0 0 0-48-48z m-48 480a48 48 0 1 0 96 0 48 48 0 0 0-96 0z" fill="#D73B1D" p-id="4816"></path></svg>