<?xml version="1.0" standalone="no"?><!DOCTYPE svg PUBLIC "-//W3C//DTD SVG 1.1//EN" "http://www.w3.org/Graphics/SVG/1.1/DTD/svg11.dtd"><svg t="1612269937004" class="icon" viewBox="0 0 1024 1024" version="1.1" xmlns="http://www.w3.org/2000/svg" p-id="7413" xmlns:xlink="http://www.w3.org/1999/xlink" width="200" height="200"><defs><style type="text/css"></style></defs><path d="M300.977465 643.701135a42.195476 42.195476 0 1 0 84.390953 0 42.195476 42.195476 0 0 0-84.390953 0z m590.849551-48.200825c72.67375-18.8288 126.586429-84.27807 126.586429-162.82171a168.827058 168.827058 0 0 0-337.608963 0c0 78.543639 53.867526 143.99291 126.563852 162.82171v385.787212l84.413529-84.413529v-42.195477h84.390953v-42.218052h-84.390953V728.092087h84.390953v-42.195476h-84.390953v-90.396301z m-42.195476-78.408181a84.390953 84.390953 0 1 1-0.045153-168.781905 84.390953 84.390953 0 0 1 0.045153 168.781905zM132.19556 432.701177c0.090306 0 0.112882-0.090306 0.203189-0.090306 41.992288 71.883572 111.256986 126.676735 189.687743 126.676735 78.47591 0 147.718032-54.815739 189.687743-126.676735 0.090306 0 0.135459 0.090306 0.225765 0.090306 23.321523 0 84.390953-61.092006 84.390953-84.413529s-18.89653-42.195476-42.1729-42.195477c-0.3838 0-0.699871 0.225765-1.106249 0.225765 0.632142-7.134174 1.106248-14.290924 1.106249-21.312215 0-128.211937-103.942201-232.108985-232.131561-232.108984-128.166784 0-232.108985 103.919624-232.108985 232.108984 0 7.043868 0.474106 14.178041 1.106249 21.312215-0.428953 0-0.722448-0.225765-1.106249-0.225765-23.321523 0-42.1729 18.873953-42.1729 42.195477s61.024276 84.413529 84.390953 84.413529z m330.09099 198.831225l-76.872979 307.58222H355.206216l30.184779-210.999958h-84.41353l30.139626 210.999958h-30.139626L224.08191 631.532402C112.102476 683.413196 5.563978 794.286382 5.563978 896.896569c0 139.86141 197.792706 126.609005 337.63154 126.609006 139.816257 0 337.63154 13.252405 337.63154-126.609006 0-102.610187-106.583651-213.483373-218.540508-265.364167z" fill="#2c2c2c" p-id="7414"></path></svg>