<?xml version="1.0" standalone="no"?><!DOCTYPE svg PUBLIC "-//W3C//DTD SVG 1.1//EN" "http://www.w3.org/Graphics/SVG/1.1/DTD/svg11.dtd"><svg t="1606984485271" class="icon" viewBox="0 0 1134 1024" version="1.1" xmlns="http://www.w3.org/2000/svg" p-id="4053" xmlns:xlink="http://www.w3.org/1999/xlink" width="221.484375" height="200"><defs><style type="text/css"></style></defs><path d="M363.846809 517.228936v404.371064h282.362553V482.805106l-136.388085 111.114894-145.974468-76.691064z" p-id="4054" fill="#cdcdcd"></path><path d="M61.875745 474.525957L217.87234 348.595745l292.820426 174.297872 348.595745-318.529362 3.921702-3.485957 57.954042 57.518298L1012.234894 0 740.765957 84.534468l65.361703 63.618723-305.021277 281.05532-290.641702-174.297873L13.94383 417.443404a35.295319 35.295319 0 0 0-6.100426 50.110639 37.038298 37.038298 0 0 0 54.032341 6.971914z" p-id="4055" fill="#cdcdcd"></path><path d="M16.122553 596.534468v325.065532h281.926809V479.754894l-77.998298-52.289362-203.928511 169.068936zM942.08 572.132766a231.81617 231.81617 0 0 1 52.289362 5.664681V435.744681l-120.265532-155.996596-162.097021 150.76766v289.770212a253.16766 253.16766 0 0 1 230.073191-148.153191zM1089.361702 787.826383a146.845957 146.845957 0 0 0-13.508085-33.116596l33.55234-33.55234-61.004255-58.825532-33.55234 33.55234a143.36 143.36 0 0 0-33.116596-13.508085v-47.49617h-83.227234v47.49617a135.95234 135.95234 0 0 0-33.116596 13.508085l-33.55234-33.55234-58.825532 58.825532 33.55234 33.55234a148.153191 148.153191 0 0 0-13.94383 33.116596H745.123404V871.489362h47.49617s3.485957 11.329362 5.664681 16.558298a77.126809 77.126809 0 0 0 6.536171 13.508085l-33.552341 33.55234 58.825532 58.825532 33.55234-33.55234a130.723404 130.723404 0 0 0 13.508086 6.53617l17.429787 6.100425v50.982128h83.227234v-47.49617l17.429787-6.100426c4.357447-2.178723 9.150638-3.921702 13.508085-6.53617l33.552341 33.55234 58.825532-58.825531-33.552341-33.552341a130.723404 130.723404 0 0 0 6.53617-13.508085 107.193191 107.193191 0 0 0 6.100426-16.558298H1132.93617v-87.148936h-43.574468z m-48.803404 43.574468v15.686809a12.636596 12.636596 0 0 1 0 3.921702 97.606809 97.606809 0 0 1-69.719149 71.462127 87.148936 87.148936 0 0 1-25.708936 3.485958 84.098723 84.098723 0 0 1-25.273192-3.485958 98.914043 98.914043 0 0 1-70.154893-71.462127 12.636596 12.636596 0 0 0 0-3.921702 25.708936 25.708936 0 0 0 0-5.664681v-3.921702-16.122554a18.737021 18.737021 0 0 0 0-2.178723 47.931915 47.931915 0 0 1 0-7.843404 50.546383 50.546383 0 0 1 0-7.843405v-2.178723l2.614468-6.971915a98.042553 98.042553 0 0 1 181.705532 0 43.574468 43.574468 0 0 1 2.178723 6.971915V821.378723a40.088511 40.088511 0 0 1 0 6.971915z" p-id="4056" fill="#cdcdcd"></path></svg>