<?xml version="1.0" standalone="no"?><!DOCTYPE svg PUBLIC "-//W3C//DTD SVG 1.1//EN" "http://www.w3.org/Graphics/SVG/1.1/DTD/svg11.dtd"><svg t="1602823807872" class="icon" viewBox="0 0 1024 1024" version="1.1" xmlns="http://www.w3.org/2000/svg" p-id="2347" xmlns:xlink="http://www.w3.org/1999/xlink" width="200" height="200"><defs><style type="text/css"></style></defs><path d="M867.721532 0l-711.443065 0c-52.963869 0-96.048797 40.886067-96.048797 91.109327l0 841.781346c0 50.255127 43.084928 91.109327 96.048797 91.109327l711.411197 0c52.963869 0 96.080665-40.8542 96.080665-91.109327l0-841.781346C963.77033 40.886067 920.685401 0 867.721532 0L867.721532 0zM903.540659 932.890673c0 17.017272-16.061245 30.879656-35.850994 30.879656l-711.411197 0c-19.757881 0-35.819127-13.862384-35.819127-30.879656l0-841.781346c0-17.017272 16.061245-30.847789 35.819127-30.847789l711.443065 0c19.757881 0 35.819127 13.862384 35.819127 30.847789L903.540659 932.890673 903.540659 932.890673z" p-id="2348"></path><path d="M753.253291 120.491208l-482.570317 0c-33.014782 0-59.84726 25.302835-59.84726 56.373697l0 63.926306c0 33.30159 28.36212 60.420876 63.22522 60.420876l478.905549 0c33.237855 0 60.22967-27.661034 60.22967-61.695578l0-62.715339C813.164286 145.730308 786.299941 120.491208 753.253291 120.491208L753.253291 120.491208zM752.934616 240.950549l-478.905549 0c-1.43404 0-2.390066-0.446146-2.772477-0.446146-0.12747 0-0.191205 0.031868-0.223073 0.159338l0-59.942862 481.869231 0.25494 0 59.97473L752.934616 240.950549z" p-id="2349"></path><path d="M798.122802 451.754396" p-id="2350"></path><path d="M662.59011 843.279121" p-id="2351"></path><path d="M326.80173 401.817944l-45.857405 0c-33.014782 0-59.84726 25.302835-59.84726 56.373697l0 63.926306c0 33.30159 28.36212 60.420876 63.22522 60.420876l42.192637 0c33.237855 0 60.22967-27.661034 60.22967-61.695578l0-62.715339C386.712725 427.088912 359.816513 401.817944 326.80173 401.817944L326.80173 401.817944zM326.483055 522.277285l-42.192637 0c-1.43404 0-2.390066-0.446146-2.772477-0.446146-0.12747 0-0.191205 0.031868-0.223073 0.159338l0-59.942862 45.156319 0.25494 0 59.97473L326.483055 522.277285z" p-id="2352"></path><path d="M534.896835 401.817944l-45.857405 0c-33.014782 0-59.84726 25.302835-59.84726 56.373697l0 63.926306c0 33.30159 28.36212 60.420876 63.22522 60.420876l42.192637 0c33.237855 0 60.22967-27.661034 60.22967-61.695578l0-62.715339C594.839698 427.088912 567.943485 401.817944 534.896835 401.817944L534.896835 401.817944zM534.57816 522.277285l-42.192637 0c-1.43404 0-2.390066-0.446146-2.772477-0.446146-0.12747 0-0.191205 0.031868-0.223073 0.159338l0-59.942862 45.156319 0.25494 0 59.97473L534.57816 522.277285z" p-id="2353"></path><path d="M742.99194 401.817944l-45.857405 0c-33.014782 0-59.84726 25.302835-59.84726 56.373697l0 63.926306c0 33.30159 28.36212 60.420876 63.22522 60.420876l42.192637 0c33.237855 0 60.22967-27.661034 60.22967-61.695578l0-62.715339C802.934802 427.088912 776.03859 401.817944 742.99194 401.817944L742.99194 401.817944zM742.705132 522.277285l-42.192637 0c-1.43404 0-2.390066-0.446146-2.772477-0.446146-0.12747 0-0.191205 0.031868-0.223073 0.159338l0-59.942862 45.156319 0.25494 0 59.97473L742.705132 522.277285z" p-id="2354"></path><path d="M326.80173 680.595276l-45.857405 0c-33.014782 0-59.84726 25.302835-59.84726 56.373697l0 63.926306c0 33.30159 28.36212 60.420876 63.22522 60.420876l42.192637 0c33.237855 0 60.22967-27.661034 60.22967-61.695578l0-62.715339C386.712725 705.834376 359.816513 680.595276 326.80173 680.595276L326.80173 680.595276zM326.483055 801.054617l-42.192637 0c-1.43404 0-2.390066-0.446146-2.772477-0.446146-0.12747 0-0.191205 0.031868-0.223073 0.159338l0-59.942862 45.156319 0.25494 0 59.97473L326.483055 801.054617z" p-id="2355"></path><path d="M534.896835 680.595276l-45.857405 0c-33.014782 0-59.84726 25.302835-59.84726 56.373697l0 63.926306c0 33.30159 28.36212 60.420876 63.22522 60.420876l42.192637 0c33.237855 0 60.22967-27.661034 60.22967-61.695578l0-62.715339C594.839698 705.834376 567.943485 680.595276 534.896835 680.595276L534.896835 680.595276zM534.57816 801.054617l-42.192637 0c-1.43404 0-2.390066-0.446146-2.772477-0.446146-0.12747 0-0.191205 0.031868-0.223073 0.159338l0-59.942862 45.156319 0.25494 0 59.97473L534.57816 801.054617z" p-id="2356"></path><path d="M742.99194 680.595276l-45.857405 0c-33.014782 0-59.84726 25.302835-59.84726 56.373697l0 63.926306c0 33.30159 28.36212 60.420876 63.22522 60.420876l42.192637 0c33.237855 0 60.22967-27.661034 60.22967-61.695578l0-62.715339C802.934802 705.834376 776.03859 680.595276 742.99194 680.595276L742.99194 680.595276zM742.705132 801.054617l-42.192637 0c-1.43404 0-2.390066-0.446146-2.772477-0.446146-0.12747 0-0.191205 0.031868-0.223073 0.159338l0-59.942862 45.156319 0.25494 0 59.97473L742.705132 801.054617z" p-id="2357"></path></svg>