<?xml version="1.0" standalone="no"?><!DOCTYPE svg PUBLIC "-//W3C//DTD SVG 1.1//EN" "http://www.w3.org/Graphics/SVG/1.1/DTD/svg11.dtd"><svg t="1612269704334" class="icon" viewBox="0 0 1024 1024" version="1.1" xmlns="http://www.w3.org/2000/svg" p-id="5403" xmlns:xlink="http://www.w3.org/1999/xlink" width="200" height="200"><defs><style type="text/css"></style></defs><path d="M195.3 664.4c68.3-25.4 105.1-37.9 118.3-42.1 12.3-3.3 23.9-8.5 34.5-15.6 6-3.6 11.5-8.1 16.3-13.3v-2.3c-2.2-5.6-3.5-11.5-3.8-17.4-0.4-3.1-0.4-6.3 0-9.5l-15.2-14c-10.6-9.8-19-21.7-24.7-34.9-3.8-9.1-7.6-17.8-10.6-27.3v-6.8c-7.2-6.5-13.7-13.7-19.3-21.6-8.4-12.3-14.6-26.1-18.2-40.6-6-17.9-8.2-36.9-6.4-55.8 1.2-11.3 3.8-22.3 7.6-33 1.8-5.3 3.9-10.5 6.4-15.6 0.1-20.2 1.5-40.3 4.2-60.3 2.4-20.7 6.2-41.3 11.4-61.4h-7.6c-9.6 0.1-19.1 1.1-28.4 3-9.9 1.8-19.6 4.7-28.8 8.7-10.1 4.9-19.6 10.9-28.4 17.8-10 8.1-18.6 17.8-25.4 28.8-8.3 13-14.5 27.2-18.6 42.1-4 14.5-7 29.4-8.7 44.4-1.9 16.4-2.7 32.8-2.3 49.3-6.2 8.4-9.8 18.4-10.6 28.8-1.1 6.5-1.1 13.2 0 19.7 1.7 5.9 4.2 11.5 7.6 16.7 2.3 3.2 4.8 6.3 7.6 9.1 2.7 2 5.6 3.5 8.7 4.6l5.7 19.7c2.3 5.7 4.2 11 6.8 16.7 1.9 4.7 4.8 8.9 8.3 12.5 6.4 5.4 12.5 11.3 18.2 17.4 6 6.5 9.2 15.1 9.1 23.9v17.8c0.1 5.6-0.8 11.1-2.7 16.3-2.2 5.7-5.4 11-9.5 15.6-5.8 6.3-12.4 11.8-19.7 16.3-11.7 7.5-24.5 13.1-37.9 16.7-9.9 2.7-44 15.2-67.1 23.5v160.8h3.4c0-9.5 2.3-20.1 4.2-34.1v-3.8c3.6-32.5 19.2-62.5 43.6-84.2 20-15.8 42.8-27.8 67.1-35.3h4.9v-1.3zM922 639c-11.1-3.1-21.9-6.8-32.6-11-9.4-4-18.1-9.5-25.8-16.3-5.9-5.3-10.7-11.7-14-19-2.6-6.4-4.2-13.2-4.6-20.1-0.8-11.1 0.8-22.2 4.6-32.6 1.5-3.5 3.5-6.7 6.1-9.5 2.6-2.8 5.5-5.2 8.7-7.2l9.9-8.7c3.8-3.6 6.7-8 8.7-12.9 2.7-5.3 4.9-10.7 6.8-16.3 0-6.4 3.8-13.3 5.3-20.1 4.4-1.4 8.4-3.8 11.8-6.8 3.4-3.8 6.2-8.2 8.3-12.9 3.1-6.8 5-14.1 5.7-21.6 0.8-5.8 0.8-11.7 0-17.4-1.1-3.9-2.5-7.7-4.2-11.4-0.9-3.2-2.9-6-5.7-8 0.3-17.2-0.7-34.5-3-51.6-2.3-15.8-5.7-31.4-10.2-46.7-5.8-16.3-14.1-31.5-24.7-45.1-4.9-6.8-10.8-12.8-17.4-17.8-16.2-12.5-34.6-21.9-54.2-27.7-10.7-3-21.8-4.6-33-4.6h-15.2c5.4 18.8 9.3 37.9 11.8 57.3 2.7 19.1 4.2 38.4 4.6 57.7 6.6 11.8 11.2 24.6 13.7 37.9 2.1 14.1 2.1 28.4 0 42.5-1.9 16.1-6.1 31.8-12.5 46.7-6.9 14.6-16.8 27.6-29.2 37.9L739 482v2.3c-3.5 9.1-7.3 18.2-11.4 27.3-7.5 18.2-19.7 34.2-35.3 46.3v16.7c0 7.4-1.6 14.6-4.9 21.2 6.2 5 13.1 9.1 20.5 12.1 12.3 5.3 25 9.6 37.9 12.9 13 4 25.7 8.9 37.9 14.8l37.9 17.4 21.6 9.5c18.9 7.6 36.5 17.9 52.3 30.7 18.8 16.7 32.7 38.2 40.2 62.2 4.3 14.7 7.1 29.8 8.3 45.1 1.6 6.2 2.4 12.6 2.3 19h2.3V654.2c-12.4-5.7-25-10.8-37.9-15.2H922z" fill="#2C2C2C" p-id="5404"></path><path d="M905.7 778.9c-4.7-14.7-13.3-27.8-25-37.9a174.2 174.2 0 0 0-40.2-23.5c-14.8-6.1-80-37.9-96.3-40.6-15.3-4.3-30.4-9.5-45.1-15.6-12.9-5.4-24.9-13-35.3-22.4-8.1-7.3-14.6-16.2-19-26.2-3.8-8.6-6-17.9-6.4-27.3-0.9-15.5 1.6-31 7.2-45.5 2-4.8 4.8-9.1 8.3-12.9 3.4-3.7 7.3-7 11.4-9.9 5-3.6 9.7-7.7 14-12.1 5-5 9.1-10.7 12.1-17.1 3.4-7.6 6.4-15.2 9.5-22.8 3-7.6 4.9-18.2 7.2-27.3 5.1-2.3 9.6-5.6 13.3-9.9 5-5.1 9.1-11 12.1-17.4 4.1-9.4 6.6-19.4 7.6-29.6 1.3-7.9 1.3-16 0-23.9-1.1-5.5-2.9-10.9-5.3-15.9-1.4-4.5-4.2-8.3-8-11 0.5-23.7-0.9-47.4-4.2-70.9-2.7-21.8-7.6-43.2-14.4-64.1-6.6-22.5-17-43.6-30.7-62.6-6.9-9.2-15.1-17.4-24.3-24.3-10.3-8.6-21.4-16-33.4-22-13.2-6.3-26.9-11.5-41-15.6-14.8-4.1-30.1-6.2-45.5-6.1-12.7 0.2-25.4 1.5-37.9 3.8-13.1 2.5-25.8 6.6-37.9 12.1-31.9 13.2-59.2 35.5-78.5 64.1-11.3 17.8-19.8 37.2-25 57.7C344.7 244 340.3 287 342.1 330c-4.2 5.6-7.6 11.9-9.9 18.6-2.7 6.2-4.7 12.7-6.1 19.3-0.8 9.1 0.3 18.2 3 26.9 1.9 8.2 5.2 16.1 9.9 23.1 3.2 4.5 6.7 8.6 10.6 12.5 3.5 2.8 7.5 4.8 11.8 6.1l8.3 27.7c2.7 7.6 5.7 15.2 8.7 22.4 2.7 6.6 6.7 12.5 11.8 17.4 8.9 7.6 17.2 15.6 25 23.9 8.1 9 12.6 20.6 12.9 32.6v25c-0.1 7.6-1.4 15.2-3.8 22.4-3.2 7.8-7.7 14.9-13.3 21.2-7.8 8.5-16.7 15.9-26.6 22a155.53 155.53 0 0 1-49.7 23.1c-19.3 5.3-102 36-119.9 42.9-17 5.8-32.8 14.7-46.7 26.2-13.7 13.2-22.4 30.8-24.7 49.7-5 22.4-6.2 45.5-3.4 68.3-0.3 15.5 4.4 30.6 13.3 43.2 13.5 6.9 28 11.8 42.9 14.8 113.7 23.5 229.5 35.4 345.5 35.7 113.8 1.4 227.2-14.2 336.4-46.3 8.7-2.4 16.8-6.8 23.5-12.9 4.4-8.9 7.3-18.5 8.3-28.4 1.9-13.2 2.7-26.5 2.7-39.8 0-13.7 0-2.7-1.9-16.3-0.8-11.6-2.9-23-6.1-34.1l1.1 1.7z m-322 85c-4.4 5.7-9.2 11-14.4 15.9-5.1 5.1-10.7 9.6-16.7 13.7-3.7 3.1-8.1 5.1-12.9 5.7-4.4-0.8-8.6-2.6-12.1-5.3-6-4.1-11.7-8.7-17.1-13.7-5.4-5-10.4-10.4-14.8-16.3-3.3-3.3-5.4-7.6-6.1-12.1 0.2-7.4 1.1-14.8 2.7-22 0-9.5 4.2-20.1 6.4-30.7s4.9-21.2 8-31.5 4.2-15.6 6.4-23.1c-5.6-5-10.6-10.8-14.8-17.1-2.9-4.1-4.5-9-4.6-14 0.1-5.1 1.6-10 4.2-14.4 2.5-4.4 5.6-8.5 9.1-12.1 4.3-4.7 9-9 14-12.9h41l14 12.9c4.2 3.6 7.7 8 10.2 12.9 3 4.2 4.6 9.2 4.6 14.4-0.2 6.2-2.2 12.3-5.7 17.4-4.6 5.9-9.8 11.2-15.6 15.9 0 6.8 3.8 14.8 5.7 25.4l6.8 31.5c0 10.2 4.2 20.1 5.7 29.2 1.2 6.1 2 12.3 2.3 18.6-0.7 4.7-2.8 9.1-6.1 12.5l-0.2-0.8z" fill="#2C2C2C" p-id="5405"></path></svg>